<svg width="46" height="46" viewBox="0 0 46 46" fill="none" xmlns="http://www.w3.org/2000/svg">
<path d="M38.3421 38.3421C46.8153 29.8689 46.8153 16.1311 38.3421 7.65788C29.8689 -0.815327 16.1311 -0.815321 7.65789 7.65789C-0.815324 16.1311 -0.815324 29.8689 7.65789 38.3421C16.1311 46.8153 29.8689 46.8153 38.3421 38.3421Z" fill="white" stroke="#100803" stroke-miterlimit="10"/>
<path d="M30.6243 39.549C39.7626 35.3362 43.7555 24.5131 39.5427 15.3748C35.3299 6.23655 24.5067 2.24367 15.3685 6.45646C6.2302 10.6693 2.23732 21.4924 6.45012 30.6307C10.6629 39.7689 21.4861 43.7618 30.6243 39.549Z" fill="white" stroke="#100803" stroke-miterlimit="10"/>
<path d="M27.3652 36.6542L27.882 39.0965L27.33 39.2044L26.8153 36.785L26.715 36.3136L26.2403 36.3965C24.1794 36.7563 22.5909 36.4158 21.3991 35.4597C20.2554 34.5422 19.3522 32.9931 18.7358 30.7364L22.0374 29.4181C22.238 30.1273 22.4941 30.82 22.8034 31.4895C23.079 32.133 23.5285 32.6868 24.1016 33.0881L24.1143 33.0971L24.1277 33.1052C24.4041 33.2741 24.7114 33.3859 25.0316 33.434C25.3391 33.4802 25.6525 33.4668 25.9547 33.3946C26.2959 33.3554 26.6204 33.2252 26.8943 33.0172C27.1789 32.8012 27.3975 32.5099 27.5257 32.1763L27.5312 32.1621L27.5358 32.1476C27.7167 31.5748 27.7412 30.964 27.6068 30.3787C27.4192 29.3323 26.9183 28.3677 26.1703 27.6133L26.1631 27.606L26.1557 27.5991C25.3815 26.8795 24.5145 26.2674 23.5779 25.7792L20.4575 24.0702C19.7879 23.6691 19.1458 23.2234 18.5355 22.7362C17.9658 22.278 17.476 21.7279 17.0861 21.1084C16.6367 20.3705 16.3243 19.5569 16.164 18.7072L16.1641 18.7072L16.1619 18.6964C15.7681 16.8354 15.9991 15.3369 16.7853 14.1453C17.6934 12.8468 19.0377 11.9205 20.5715 11.5359L21.0386 11.4187L20.9391 10.9475L20.4541 8.65124L20.9714 8.54082L21.4601 10.836L21.5623 11.316L22.0442 11.2227C22.9327 11.0507 23.8502 11.1065 24.7116 11.3848C25.4028 11.6248 26.0202 12.0408 26.5032 12.5922C26.9973 13.1647 27.4004 13.8102 27.6985 14.5059L27.6984 14.5059L27.7009 14.5115C27.9539 15.0826 28.173 15.668 28.3572 16.2647L24.9762 17.5191C24.8349 17.0037 24.6681 16.4954 24.4764 15.9964C24.2734 15.4298 23.9312 14.9236 23.4811 14.5246L23.4636 14.5091L23.4447 14.4953C23.1883 14.3077 22.8905 14.185 22.5764 14.1376C22.2739 14.0919 21.9652 14.1175 21.6745 14.212C21.3452 14.2822 21.0372 14.4301 20.7763 14.6437C20.5067 14.8644 20.2958 15.1483 20.162 15.4701C19.9169 16.0557 19.8578 16.7026 19.9924 17.3229C20.1482 18.2642 20.6175 19.1251 21.3243 19.7651L21.332 19.7721L21.3399 19.7787C21.9659 20.3 22.6328 20.7697 23.3341 21.1835L23.334 21.1837L23.346 21.1903L26.4061 22.8839C27.2003 23.3517 27.9572 23.8804 28.6701 24.4653L28.6712 24.4662C29.3761 25.0411 29.9916 25.7183 30.4975 26.4753C31.0385 27.3145 31.4147 28.2498 31.6057 29.2307L31.6056 29.2308L31.6086 29.2442C31.8247 30.2111 31.814 31.2152 31.5773 32.1772L31.577 32.1782C31.3576 33.0775 30.9031 33.9016 30.2604 34.5658C29.5508 35.2734 28.6753 35.7908 27.7146 36.0706L27.2692 36.2003L27.3652 36.6542Z" fill="url(#paint0_linear_3178_33366)" stroke="#100803"/>
<defs>
<linearGradient id="paint0_linear_3178_33366" x1="27.2448" y1="36.503" x2="6.85113" y2="26.9249" gradientUnits="userSpaceOnUse">
<stop stop-color="#FFB806"/>
<stop offset="1" stop-color="#FFB800"/>
</linearGradient>
</defs>
</svg>
